<?xml version="1.0" encoding="UTF-8"?><svg id="Layer_1" xmlns="http://www.w3.org/2000/svg" viewBox="0 0 668.03 199.1"><defs><style>.cls-1{fill:#505884;}.cls-1,.cls-2,.cls-3,.cls-4,.cls-5,.cls-6,.cls-7{fill-rule:evenodd;}.cls-8,.cls-2{fill:#f05523;}.cls-3{fill:#666d93;}.cls-4{fill:#242e65;}.cls-5{fill:#a7abc1;}.cls-6{fill:#3a4374;}.cls-7{fill:#7c82a3;}</style></defs><path class="cls-2" d="M139.38,34.68c-.06,21.56-.11,43.12-.17,64.68h-19.59v-1.06c.03-1.21.03-2.35,0-3.29v-40.45c-14.74-.08-29.47-.15-44.21-.23.17-6.64.35-13.29.53-19.92,21.15.09,42.29.19,63.43.28Z"/><path class="cls-5" d="M139.22,104.74c-.34,4.57-1.27,10.44-3.61,16.92-3.99,11.08-10.22,18.69-14.41,23.01-4.69-4.62-9.39-9.25-14.08-13.87,1.14-1.19,2.07-2.29,2.78-3.18.4-.5.74-.96,1.02-1.33,1.66-2.28,3.09-4.7,4.28-7.19,1.73-3.65,2.97-7.5,3.66-11.46.26-.96.52-1.92.78-2.89h19.6Z"/><path class="cls-7" d="M116.67,149.12c-10.49,8.99-23.49,14.38-37.26,15.44v-20c.13-.02.26-.03.39-.05,5.45-.71,13.55-2.73,21.15-8.26.48-.34.93-.68,1.34-1.02.09-.07.18-.15.27-.22l14.11,14.11Z"/><path class="cls-3" d="M73.32,164.7c-5.08-.06-12.82-.77-21.58-4.01-9.18-3.39-15.72-8.19-19.66-11.57l14.11-14.11c.09.06.17.13.26.2.44.35.89.7,1.34,1.03,7.63,5.56,15.72,7.57,21.17,8.27,1.74.23,3.19.33,4.23.37.03,6.62.08,13.23.12,19.83Z"/><path class="cls-4" d="M69.36,34.87v19.83c-.1,0-.18.02-.25.03l-.16.02c-5.42.75-10.78,2.44-15.47,4.91-1.99,1.04-3.9,2.24-5.66,3.51-.46.34-.91.68-1.35,1.03-1.11.87-2.16,1.79-3.18,2.76-4.6-4.82-9.2-9.61-13.78-14.43,4.3-4.04,11.66-9.89,22.24-13.8,6.79-2.51,12.92-3.48,17.61-3.85Z"/><path class="cls-6" d="M39.1,71.54c-.08.09-.15.18-.22.27-1.67,2.12-3.13,4.35-4.36,6.65-3.4,6.39-4.36,11.9-4.73,14.01-.11.65-.2,1.25-.27,1.83-.22,1.67-.32,3.11-.35,4.22-6.6-.37-13.21-.73-19.8-1.08.16-4.48.82-10.14,2.71-16.43,3.33-11.08,8.97-18.96,12.9-23.59l14.12,14.12Z"/><path class="cls-1" d="M41.88,131.04c-5.03,4.38-10.04,8.77-15.07,13.15-4.56-5.01-11.09-13.58-14.74-25.81-1.5-5.04-2.22-9.68-2.53-13.64h19.92c0,.13.03.27.05.41.08.63.17,1.16.24,1.59l.02.1c.33,2.01.73,3.64,1,4.66.69,2.55,1.6,5.04,2.71,7.38,1.22,2.6,2.69,5.09,4.4,7.43l.14.18c.25.34.54.73.87,1.12.76.96,1.75,2.14,3,3.42Z"/><path class="cls-8" d="M139.22,104.74c-.34,4.57-1.27,10.44-3.61,16.92-3.99,11.08-10.22,18.69-14.41,23.01-4.69-4.62-9.39-9.25-14.08-13.87,1.14-1.19,2.07-2.29,2.78-3.18.4-.5.74-.96,1.02-1.33,1.66-2.28,3.09-4.7,4.28-7.19,1.73-3.65,2.97-7.5,3.66-11.46.26-.96.52-1.92.78-2.89h19.6Z"/><path class="cls-8" d="M139.22,104.74c-.34,4.57-1.27,10.44-3.61,16.92-3.99,11.08-10.22,18.69-14.41,23.01-4.69-4.62-9.39-9.25-14.08-13.87,1.14-1.19,2.07-2.29,2.78-3.18.4-.5.74-.96,1.02-1.33,1.66-2.28,3.09-4.7,4.28-7.19,1.73-3.65,2.97-7.5,3.66-11.46.26-.96.52-1.92.78-2.89h19.6Z"/><path class="cls-8" d="M116.67,149.12c-10.49,8.99-23.49,14.38-37.26,15.44v-20c.13-.02.26-.03.39-.05,5.45-.71,13.55-2.73,21.15-8.26.48-.34.93-.68,1.34-1.02.09-.07.18-.15.27-.22l14.11,14.11Z"/><path class="cls-8" d="M116.67,149.12c-10.49,8.99-23.49,14.38-37.26,15.44v-20c.13-.02.26-.03.39-.05,5.45-.71,13.55-2.73,21.15-8.26.48-.34.93-.68,1.34-1.02.09-.07.18-.15.27-.22l14.11,14.11Z"/><path class="cls-8" d="M73.32,164.7c-5.08-.06-12.82-.77-21.58-4.01-9.18-3.39-15.72-8.19-19.66-11.57l14.11-14.11c.09.06.17.13.26.2.44.35.89.7,1.34,1.03,7.63,5.56,15.72,7.57,21.17,8.27,1.74.23,3.19.33,4.23.37.03,6.62.08,13.23.12,19.83Z"/><path class="cls-8" d="M73.32,164.7c-5.08-.06-12.82-.77-21.58-4.01-9.18-3.39-15.72-8.19-19.66-11.57l14.11-14.11c.09.06.17.13.26.2.44.35.89.7,1.34,1.03,7.63,5.56,15.72,7.57,21.17,8.27,1.74.23,3.19.33,4.23.37.03,6.62.08,13.23.12,19.83Z"/><path class="cls-8" d="M69.36,34.87v19.83c-.1,0-.18.02-.25.03l-.16.02c-5.42.75-10.78,2.44-15.47,4.91-1.99,1.04-3.9,2.24-5.66,3.51-.46.34-.91.68-1.35,1.03-1.11.87-2.16,1.79-3.18,2.76-4.6-4.82-9.2-9.61-13.78-14.43,4.3-4.04,11.66-9.89,22.24-13.8,6.79-2.51,12.92-3.48,17.61-3.85Z"/><path class="cls-8" d="M69.36,34.87v19.83c-.1,0-.18.02-.25.03l-.16.02c-5.42.75-10.78,2.44-15.47,4.91-1.99,1.04-3.9,2.24-5.66,3.51-.46.34-.91.68-1.35,1.03-1.11.87-2.16,1.79-3.18,2.76-4.6-4.82-9.2-9.61-13.78-14.43,4.3-4.04,11.66-9.89,22.24-13.8,6.79-2.51,12.92-3.48,17.61-3.85Z"/><path class="cls-8" d="M39.1,71.54c-.08.09-.15.18-.22.27-1.67,2.12-3.13,4.35-4.36,6.65-3.4,6.39-4.36,11.9-4.73,14.01-.11.65-.2,1.25-.27,1.83-.22,1.67-.32,3.11-.35,4.22-6.6-.37-13.21-.73-19.8-1.08.16-4.48.82-10.14,2.71-16.43,3.33-11.08,8.97-18.96,12.9-23.59l14.12,14.12Z"/><path class="cls-8" d="M39.1,71.54c-.08.09-.15.18-.22.27-1.67,2.12-3.13,4.35-4.36,6.65-3.4,6.39-4.36,11.9-4.73,14.01-.11.65-.2,1.25-.27,1.83-.22,1.67-.32,3.11-.35,4.22-6.6-.37-13.21-.73-19.8-1.08.16-4.48.82-10.14,2.71-16.43,3.33-11.08,8.97-18.96,12.9-23.59l14.12,14.12Z"/><path class="cls-8" d="M41.88,131.04c-5.03,4.38-10.04,8.77-15.07,13.15-4.56-5.01-11.09-13.58-14.74-25.81-1.5-5.04-2.22-9.68-2.53-13.64h19.92c0,.13.03.27.05.41.08.63.17,1.16.24,1.59l.02.1c.33,2.01.73,3.64,1,4.66.69,2.55,1.6,5.04,2.71,7.38,1.22,2.6,2.69,5.09,4.4,7.43l.14.18c.25.34.54.73.87,1.12.76.96,1.75,2.14,3,3.42Z"/><path class="cls-8" d="M41.88,131.04c-5.03,4.38-10.04,8.77-15.07,13.15-4.56-5.01-11.09-13.58-14.74-25.81-1.5-5.04-2.22-9.68-2.53-13.64h19.92c0,.13.03.27.05.41.08.63.17,1.16.24,1.59l.02.1c.33,2.01.73,3.64,1,4.66.69,2.55,1.6,5.04,2.71,7.38,1.22,2.6,2.69,5.09,4.4,7.43l.14.18c.25.34.54.73.87,1.12.76.96,1.75,2.14,3,3.42Z"/><path class="cls-8" d="M181.51,111.89v27.98h-14.79V60.38h25.89c5.31,0,9.91.62,13.8,1.87,3.88,1.25,7.09,2.99,9.62,5.22,2.53,2.24,4.4,4.91,5.61,8.03,1.21,3.11,1.81,6.52,1.81,10.23s-.64,7.38-1.92,10.58c-1.28,3.21-3.21,5.96-5.77,8.27-2.57,2.31-5.77,4.11-9.62,5.39s-8.36,1.92-13.52,1.92h-11.11ZM181.51,100.35h11.11c2.71,0,5.08-.34,7.09-1.02,2.01-.68,3.68-1.65,5-2.91,1.32-1.26,2.31-2.8,2.97-4.62.66-1.81.99-3.84.99-6.08s-.33-4.05-.99-5.77c-.66-1.72-1.65-3.19-2.97-4.4-1.32-1.21-2.99-2.13-5-2.78-2.02-.64-4.38-.96-7.09-.96h-11.11v28.53Z"/><path class="cls-8" d="M234.18,139.87v-56.41h7.97c1.39,0,2.36.26,2.91.77s.92,1.39,1.1,2.64l.83,6.82c2.01-3.48,4.38-6.23,7.09-8.25,2.71-2.01,5.75-3.02,9.13-3.02,2.78,0,5.09.64,6.93,1.92l-1.76,10.17c-.11.66-.35,1.13-.71,1.4-.37.28-.86.41-1.49.41-.55,0-1.3-.13-2.25-.38-.95-.26-2.22-.38-3.79-.38-2.82,0-5.24.78-7.26,2.34-2.02,1.56-3.72,3.84-5.11,6.84v35.13h-13.58Z"/><path class="cls-8" d="M295.59,67.03c0,1.17-.24,2.27-.72,3.3-.48,1.03-1.11,1.92-1.9,2.69-.79.77-1.71,1.38-2.78,1.84-1.06.46-2.2.69-3.41.69s-2.28-.23-3.33-.69c-1.04-.46-1.95-1.07-2.72-1.84s-1.38-1.67-1.84-2.69c-.46-1.03-.69-2.12-.69-3.3s.23-2.35.69-3.41c.46-1.06,1.07-1.98,1.84-2.75s1.68-1.38,2.72-1.84c1.04-.46,2.15-.69,3.33-.69s2.35.23,3.41.69c1.06.46,1.99,1.07,2.78,1.84.79.77,1.42,1.69,1.9,2.75.48,1.06.72,2.2.72,3.41Z"/><rect class="cls-8" x="279.98" y="83.47" width="13.58" height="56.41"/><path class="cls-8" d="M332.97,82.59c4.21,0,8.03.68,11.46,2.03,3.43,1.36,6.35,3.28,8.77,5.77,2.42,2.49,4.29,5.53,5.61,9.13,1.32,3.59,1.98,7.61,1.98,12.04s-.66,8.5-1.98,12.1c-1.32,3.59-3.19,6.65-5.61,9.18-2.42,2.53-5.34,4.47-8.77,5.83-3.43,1.35-7.25,2.03-11.46,2.03s-8.05-.68-11.49-2.03c-3.45-1.36-6.39-3.3-8.82-5.83-2.44-2.53-4.33-5.59-5.66-9.18-1.34-3.59-2.01-7.62-2.01-12.1s.67-8.45,2.01-12.04c1.34-3.59,3.22-6.63,5.66-9.13,2.44-2.49,5.38-4.42,8.82-5.77,3.44-1.36,7.27-2.03,11.49-2.03ZM332.97,130.25c4.69,0,8.16-1.58,10.42-4.73,2.25-3.15,3.38-7.77,3.38-13.85s-1.13-10.72-3.38-13.91c-2.25-3.19-5.73-4.78-10.42-4.78s-8.28,1.6-10.56,4.81c-2.27,3.21-3.41,7.83-3.41,13.88s1.14,10.66,3.41,13.83c2.27,3.17,5.79,4.76,10.56,4.76Z"/><path class="cls-8" d="M371.4,139.87v-56.41h7.97c1.39,0,2.36.26,2.91.77s.92,1.39,1.1,2.64l.83,6.82c2.01-3.48,4.38-6.23,7.09-8.25,2.71-2.01,5.75-3.02,9.13-3.02,2.78,0,5.09.64,6.93,1.92l-1.76,10.17c-.11.66-.35,1.13-.71,1.4-.37.28-.86.41-1.49.41-.55,0-1.3-.13-2.25-.38-.95-.26-2.22-.38-3.79-.38-2.82,0-5.24.78-7.26,2.34-2.02,1.56-3.72,3.84-5.11,6.84v35.13h-13.58Z"/><path class="cls-8" d="M432.81,67.03c0,1.17-.24,2.27-.72,3.3-.48,1.03-1.11,1.92-1.9,2.69-.79.77-1.71,1.38-2.78,1.84-1.06.46-2.2.69-3.41.69s-2.28-.23-3.33-.69c-1.04-.46-1.95-1.07-2.72-1.84s-1.38-1.67-1.84-2.69c-.46-1.03-.69-2.12-.69-3.3s.23-2.35.69-3.41c.46-1.06,1.07-1.98,1.84-2.75s1.68-1.38,2.72-1.84c1.04-.46,2.15-.69,3.33-.69s2.35.23,3.41.69c1.06.46,1.99,1.07,2.78,1.84.79.77,1.42,1.69,1.9,2.75.48,1.06.72,2.2.72,3.41Z"/><rect class="cls-8" x="417.2" y="83.47" width="13.58" height="56.41"/><path class="cls-8" d="M439.24,83.47h10.78c1.03,0,1.89.24,2.58.71.7.48,1.14,1.08,1.32,1.81l8.08,30.13c.44,1.65.8,3.26,1.07,4.84.27,1.58.54,3.15.8,4.73.4-1.58.83-3.15,1.29-4.73.46-1.58.94-3.19,1.46-4.84l9.35-30.24c.22-.73.66-1.34,1.32-1.81.66-.48,1.43-.71,2.31-.71h5.99c.99,0,1.81.24,2.47.71.66.48,1.1,1.08,1.32,1.81l9.24,30.79c.48,1.58.91,3.11,1.29,4.59.38,1.49.76,2.98,1.13,4.48.26-1.58.54-3.15.85-4.73.31-1.58.7-3.21,1.18-4.89l8.36-30.13c.18-.73.62-1.34,1.32-1.81.7-.48,1.5-.71,2.42-.71h10.28l-17.87,56.41h-10.94c-1.17,0-2.02-.81-2.53-2.42l-10.17-32.6c-.33-1.06-.63-2.13-.91-3.22-.28-1.08-.5-2.15-.69-3.22-.22,1.1-.46,2.19-.71,3.27-.26,1.08-.55,2.17-.88,3.27l-10.28,32.49c-.51,1.61-1.5,2.42-2.97,2.42h-10.39l-17.87-56.41Z"/><path class="cls-8" d="M549.58,67.03c0,1.17-.24,2.27-.72,3.3-.48,1.03-1.11,1.92-1.9,2.69-.79.77-1.71,1.38-2.78,1.84-1.06.46-2.2.69-3.41.69s-2.28-.23-3.33-.69c-1.04-.46-1.95-1.07-2.72-1.84s-1.38-1.67-1.84-2.69c-.46-1.03-.69-2.12-.69-3.3s.23-2.35.69-3.41c.46-1.06,1.07-1.98,1.84-2.75s1.68-1.38,2.72-1.84c1.04-.46,2.15-.69,3.33-.69s2.35.23,3.41.69c1.06.46,1.99,1.07,2.78,1.84.79.77,1.42,1.69,1.9,2.75.48,1.06.72,2.2.72,3.41Z"/><rect class="cls-8" x="533.96" y="83.47" width="13.58" height="56.41"/><path class="cls-8" d="M596.36,94.46c-.37.59-.75,1-1.15,1.24-.4.24-.92.36-1.54.36-.66,0-1.37-.18-2.12-.55s-1.62-.78-2.61-1.24c-.99-.46-2.12-.87-3.38-1.24-1.26-.37-2.76-.55-4.48-.55-2.68,0-4.78.57-6.32,1.7-1.54,1.14-2.31,2.62-2.31,4.45,0,1.21.39,2.23,1.18,3.05.79.82,1.83,1.55,3.13,2.17,1.3.62,2.78,1.18,4.42,1.68s3.34,1.04,5.06,1.62c1.72.59,3.41,1.26,5.06,2.01s3.12,1.7,4.42,2.86c1.3,1.15,2.35,2.54,3.13,4.15.79,1.61,1.18,3.56,1.18,5.83,0,2.71-.49,5.21-1.49,7.5-.99,2.29-2.44,4.27-4.34,5.94-1.91,1.67-4.26,2.97-7.06,3.9-2.8.93-6.02,1.4-9.65,1.4-1.94,0-3.84-.17-5.69-.52-1.85-.35-3.63-.83-5.33-1.46-1.7-.62-3.28-1.36-4.73-2.2-1.45-.84-2.72-1.76-3.82-2.75l3.13-5.17c.4-.62.88-1.1,1.43-1.43.55-.33,1.24-.49,2.09-.49s1.64.24,2.39.71c.75.48,1.62.99,2.61,1.54.99.55,2.15,1.06,3.49,1.54,1.34.48,3.03.71,5.08.71,1.61,0,3-.19,4.15-.58s2.11-.89,2.86-1.51c.75-.62,1.3-1.35,1.65-2.17.35-.82.52-1.68.52-2.56,0-1.32-.39-2.4-1.18-3.24-.79-.84-1.83-1.58-3.13-2.2s-2.79-1.18-4.45-1.68c-1.67-.49-3.37-1.04-5.11-1.62-1.74-.59-3.45-1.27-5.11-2.06-1.67-.79-3.15-1.79-4.45-3-1.3-1.21-2.35-2.69-3.13-4.45-.79-1.76-1.18-3.88-1.18-6.38,0-2.31.46-4.51,1.37-6.6.92-2.09,2.26-3.91,4.04-5.47,1.78-1.56,3.99-2.8,6.65-3.74s5.73-1.4,9.21-1.4c3.88,0,7.42.64,10.61,1.92,3.19,1.28,5.85,2.97,7.97,5.06l-3.08,4.89Z"/><path class="cls-8" d="M634.24,82.59c3.55,0,6.83.57,9.81,1.7,2.99,1.14,5.56,2.8,7.72,4.98,2.16,2.18,3.85,4.86,5.06,8.03,1.21,3.17,1.81,6.79,1.81,10.86,0,1.03-.05,1.88-.14,2.56-.09.68-.26,1.21-.49,1.59-.24.38-.56.66-.96.82-.4.17-.92.25-1.54.25h-34.85c.4,5.79,1.96,10.04,4.67,12.75,2.71,2.71,6.3,4.07,10.78,4.07,2.2,0,4.1-.26,5.69-.77,1.59-.51,2.99-1.08,4.18-1.7,1.19-.62,2.24-1.19,3.13-1.7.9-.51,1.77-.77,2.61-.77.55,0,1.03.11,1.43.33.4.22.75.53,1.04.93l3.96,4.95c-1.5,1.76-3.19,3.24-5.06,4.43-1.87,1.19-3.82,2.14-5.85,2.86-2.03.72-4.11,1.22-6.21,1.51-2.11.29-4.15.44-6.13.44-3.92,0-7.57-.65-10.94-1.95-3.37-1.3-6.3-3.22-8.8-5.77-2.49-2.55-4.45-5.7-5.88-9.46-1.43-3.76-2.14-8.11-2.14-13.06,0-3.85.62-7.47,1.87-10.86,1.25-3.39,3.03-6.34,5.36-8.85s5.17-4.5,8.52-5.97c3.35-1.47,7.14-2.2,11.35-2.2ZM634.52,92.32c-3.96,0-7.06,1.12-9.29,3.35-2.24,2.24-3.66,5.41-4.29,9.51h25.51c0-1.76-.24-3.42-.72-4.98-.48-1.56-1.21-2.92-2.2-4.1-.99-1.17-2.24-2.1-3.74-2.78-1.5-.68-3.26-1.02-5.28-1.02Z"/></svg>